<svg width="56" height="50" viewBox="0 0 56 50" fill="none" xmlns="http://www.w3.org/2000/svg">
<path fill-rule="evenodd" clip-rule="evenodd" d="M26.3429 0.251479C27.0002 -0.0838264 27.7553 -0.0838264 28.4127 0.251479L53.3015 12.9499C54.1873 13.4019 54.7556 14.3891 54.7556 15.4762C54.7556 16.5633 54.1873 17.5505 53.3015 18.0025L47.2889 21.0703V37.3525C47.2889 37.9111 47.1632 38.5228 46.8461 39.0911C46.023 40.5672 40.2518 50 27.3778 50C14.5039 50 8.73242 40.5672 7.90932 39.0911C7.59236 38.5228 7.46667 37.9111 7.46667 37.3525V21.0703L1.45411 18.0025C0.568213 17.5505 0 16.5633 0 15.4762C0 14.3891 0.568213 13.4019 1.45411 12.9499L26.3429 0.251479ZM12.4444 23.6097V36.665C13.6637 38.5525 18.2026 44.4444 27.3778 44.4444C36.5531 44.4444 41.0918 38.5525 42.3111 36.665V23.6097L28.4127 30.7008C27.7553 31.0361 27.0002 31.0361 26.3429 30.7008L12.4444 23.6097ZM8.47526 15.4762L10.9903 16.7594L27.3778 25.1203L43.7651 16.7594L46.2804 15.4762L27.3778 5.83206L8.47526 15.4762ZM56 23.6111C56 25.9122 54.3285 27.7778 52.2667 27.7778C50.2049 27.7778 48.5333 25.9122 48.5333 23.6111C48.5333 21.31 50.2049 19.4444 52.2667 19.4444C54.3285 19.4444 56 21.31 56 23.6111ZM54.7556 31.9444C54.7556 30.4103 53.6413 29.1667 52.2667 29.1667C50.8921 29.1667 49.7778 30.4103 49.7778 31.9444V47.2222C49.7778 48.7564 50.8921 50 52.2667 50C53.6413 50 54.7556 48.7564 54.7556 47.2222V31.9444Z" fill="white"/>
</svg>
