<svg width="324" height="62" viewBox="0 0 324 62" fill="none" xmlns="http://www.w3.org/2000/svg">
<path d="M19.6953 11.428C19.3313 10.84 18.8133 10.392 18.1413 10.084C17.4693 9.748 16.6573 9.58 15.7053 9.58C13.9133 9.58 12.5273 10.168 11.5473 11.344C10.5673 12.492 10.0773 14.074 10.0773 16.09C10.0773 18.414 10.6233 20.15 11.7153 21.298C12.8073 22.446 14.4873 23.02 16.7553 23.02C18.9113 23.02 20.6473 22.152 21.9633 20.416H14.5293V13.822H29.6913V23.146C28.4033 25.358 26.6253 27.262 24.3573 28.858C22.0893 30.426 19.2193 31.21 15.7473 31.21C12.6673 31.21 9.97931 30.58 7.68331 29.32C5.41531 28.032 3.66531 26.24 2.43331 23.944C1.22931 21.648 0.62731 19.03 0.62731 16.09C0.62731 13.15 1.22931 10.532 2.43331 8.236C3.66531 5.94 5.41531 4.162 7.68331 2.902C9.95131 1.614 12.6113 0.969999 15.6633 0.969999C19.5553 0.969999 22.7193 1.908 25.1553 3.784C27.6193 5.66 29.0753 8.208 29.5233 11.428H19.6953ZM39.6433 1.264V18.022C39.6433 19.394 39.9373 20.486 40.5253 21.298C41.1413 22.082 42.1213 22.474 43.4653 22.474C44.8093 22.474 45.8033 22.082 46.4473 21.298C47.0913 20.486 47.4133 19.394 47.4133 18.022V1.264H56.6953V18.022C56.6953 20.85 56.1073 23.272 54.9313 25.288C53.7553 27.276 52.1453 28.774 50.1013 29.782C48.0573 30.79 45.7753 31.294 43.2553 31.294C40.7353 31.294 38.4953 30.79 36.5353 29.782C34.6033 28.774 33.0913 27.276 31.9993 25.288C30.9073 23.3 30.3613 20.878 30.3613 18.022V1.264H39.6433ZM67.5208 1.264V31H58.1968V1.264H67.5208ZM88.28 26.506H78.368L76.898 31H67.112L77.99 1.264H88.742L99.578 31H89.75L88.28 26.506ZM86.012 19.492L83.324 11.218L80.636 19.492H86.012ZM116.183 1.264C119.291 1.264 122.007 1.894 124.331 3.154C126.683 4.414 128.489 6.164 129.749 8.404C131.009 10.644 131.639 13.192 131.639 16.048C131.639 18.876 131.009 21.424 129.749 23.692C128.489 25.96 126.683 27.752 124.331 29.068C122.007 30.356 119.291 31 116.183 31H103.793V1.264H116.183ZM115.343 22.684C117.443 22.684 119.109 22.11 120.341 20.962C121.573 19.814 122.189 18.176 122.189 16.048C122.189 13.92 121.573 12.282 120.341 11.134C119.109 9.986 117.443 9.412 115.343 9.412H113.117V22.684H115.343ZM146.976 31.294C144.176 31.294 141.6 30.636 139.248 29.32C136.924 28.004 135.076 26.184 133.704 23.86C132.332 21.536 131.646 18.918 131.646 16.006C131.646 13.094 132.332 10.476 133.704 8.152C135.076 5.828 136.924 4.022 139.248 2.734C141.6 1.418 144.176 0.759999 146.976 0.759999C149.776 0.759999 152.338 1.418 154.662 2.734C156.986 4.022 158.82 5.828 160.164 8.152C161.536 10.476 162.222 13.094 162.222 16.006C162.222 18.918 161.536 21.536 160.164 23.86C158.82 26.184 156.972 28.004 154.62 29.32C152.296 30.636 149.748 31.294 146.976 31.294ZM146.976 22.6C148.824 22.6 150.252 22.012 151.26 20.836C152.268 19.632 152.772 18.022 152.772 16.006C152.772 13.962 152.268 12.352 151.26 11.176C150.252 9.972 148.824 9.37 146.976 9.37C145.1 9.37 143.658 9.972 142.65 11.176C141.642 12.352 141.138 13.962 141.138 16.006C141.138 18.022 141.642 19.632 142.65 20.836C143.658 22.012 145.1 22.6 146.976 22.6ZM188.682 1.264V8.656H177.006V12.772H185.406V19.786H177.006V31H167.682V1.264H188.682ZM198.435 1.264V18.022C198.435 19.394 198.729 20.486 199.317 21.298C199.933 22.082 200.913 22.474 202.257 22.474C203.601 22.474 204.595 22.082 205.239 21.298C205.883 20.486 206.205 19.394 206.205 18.022V1.264H215.487V18.022C215.487 20.85 214.899 23.272 213.723 25.288C212.547 27.276 210.937 28.774 208.893 29.782C206.849 30.79 204.567 31.294 202.047 31.294C199.527 31.294 197.287 30.79 195.327 29.782C193.395 28.774 191.883 27.276 190.791 25.288C189.699 23.3 189.153 20.878 189.153 18.022V1.264H198.435ZM240.34 1.264V8.656H232.444V31H223.12V8.656H215.308V1.264H240.34ZM249.463 1.264V18.022C249.463 19.394 249.757 20.486 250.345 21.298C250.961 22.082 251.941 22.474 253.285 22.474C254.629 22.474 255.623 22.082 256.267 21.298C256.911 20.486 257.233 19.394 257.233 18.022V1.264H266.515V18.022C266.515 20.85 265.927 23.272 264.751 25.288C263.575 27.276 261.965 28.774 259.921 29.782C257.877 30.79 255.595 31.294 253.075 31.294C250.555 31.294 248.315 30.79 246.355 29.782C244.423 28.774 242.911 27.276 241.819 25.288C240.727 23.3 240.181 20.878 240.181 18.022V1.264H249.463ZM282.968 31L277.382 20.332H277.34V31H268.016V1.264H281.876C284.284 1.264 286.342 1.698 288.05 2.566C289.758 3.406 291.032 4.568 291.872 6.052C292.74 7.508 293.174 9.16 293.174 11.008C293.174 12.996 292.614 14.76 291.494 16.3C290.402 17.84 288.82 18.946 286.748 19.618L293.216 31H282.968ZM277.34 14.116H281.036C281.932 14.116 282.604 13.92 283.052 13.528C283.5 13.108 283.724 12.464 283.724 11.596C283.724 10.812 283.486 10.196 283.01 9.748C282.562 9.3 281.904 9.076 281.036 9.076H277.34V14.116ZM308.123 31.294C305.323 31.294 302.747 30.636 300.395 29.32C298.071 28.004 296.223 26.184 294.851 23.86C293.479 21.536 292.793 18.918 292.793 16.006C292.793 13.094 293.479 10.476 294.851 8.152C296.223 5.828 298.071 4.022 300.395 2.734C302.747 1.418 305.323 0.759999 308.123 0.759999C310.923 0.759999 313.485 1.418 315.809 2.734C318.133 4.022 319.967 5.828 321.311 8.152C322.683 10.476 323.369 13.094 323.369 16.006C323.369 18.918 322.683 21.536 321.311 23.86C319.967 26.184 318.119 28.004 315.767 29.32C313.443 30.636 310.895 31.294 308.123 31.294ZM308.123 22.6C309.971 22.6 311.399 22.012 312.407 20.836C313.415 19.632 313.919 18.022 313.919 16.006C313.919 13.962 313.415 12.352 312.407 11.176C311.399 9.972 309.971 9.37 308.123 9.37C306.247 9.37 304.805 9.972 303.797 11.176C302.789 12.352 302.285 13.962 302.285 16.006C302.285 18.022 302.789 19.632 303.797 20.836C304.805 22.012 306.247 22.6 308.123 22.6ZM9.81461 61.14C8.89461 61.14 8.08128 60.98 7.37461 60.66C6.68128 60.34 6.13461 59.8933 5.73461 59.32C5.33461 58.7467 5.12128 58.1067 5.09461 57.4H6.57461C6.64128 58.08 6.94128 58.68 7.47461 59.2C8.00794 59.7067 8.78794 59.96 9.81461 59.96C10.7613 59.96 11.5079 59.72 12.0546 59.24C12.6146 58.7467 12.8946 58.1267 12.8946 57.38C12.8946 56.78 12.7413 56.3 12.4346 55.94C12.1279 55.5667 11.7479 55.2933 11.2946 55.12C10.8413 54.9333 10.2146 54.7333 9.41461 54.52C8.48128 54.2667 7.74128 54.02 7.19461 53.78C6.64794 53.54 6.18128 53.1667 5.79461 52.66C5.40794 52.1533 5.21461 51.4667 5.21461 50.6C5.21461 49.88 5.40128 49.24 5.77461 48.68C6.14794 48.1067 6.67461 47.66 7.35461 47.34C8.03461 47.02 8.81461 46.86 9.69461 46.86C10.9879 46.86 12.0279 47.18 12.8146 47.82C13.6146 48.4467 14.0746 49.26 14.1946 50.26H12.6746C12.5813 49.6867 12.2679 49.18 11.7346 48.74C11.2013 48.2867 10.4813 48.06 9.57461 48.06C8.73461 48.06 8.03461 48.2867 7.47461 48.74C6.91461 49.18 6.63461 49.7867 6.63461 50.56C6.63461 51.1467 6.78794 51.62 7.09461 51.98C7.40128 52.34 7.78128 52.6133 8.23461 52.8C8.70128 52.9867 9.32794 53.1867 10.1146 53.4C11.0213 53.6533 11.7546 53.9067 12.3146 54.16C12.8746 54.4 13.3479 54.7733 13.7346 55.28C14.1213 55.7867 14.3146 56.4667 14.3146 57.32C14.3146 57.9733 14.1413 58.5933 13.7946 59.18C13.4479 59.7667 12.9346 60.24 12.2546 60.6C11.5746 60.96 10.7613 61.14 9.81461 61.14ZM35.4799 50.08V61H34.0799V59.08C33.7599 59.76 33.2666 60.28 32.5999 60.64C31.9333 61 31.1866 61.18 30.3599 61.18C29.0533 61.18 27.9866 60.78 27.1599 59.98C26.3333 59.1667 25.9199 57.9933 25.9199 56.46V50.08H27.2999V56.3C27.2999 57.4867 27.5933 58.3933 28.1799 59.02C28.7799 59.6467 29.5933 59.96 30.6199 59.96C31.6733 59.96 32.5133 59.6267 33.1399 58.96C33.7666 58.2933 34.0799 57.3133 34.0799 56.02V50.08H35.4799ZM49.0562 52.5C49.4162 51.74 49.9695 51.12 50.7162 50.64C51.4762 50.16 52.3695 49.92 53.3962 49.92C54.3962 49.92 55.2895 50.1533 56.0762 50.62C56.8628 51.0733 57.4762 51.7267 57.9162 52.58C58.3695 53.42 58.5962 54.4 58.5962 55.52C58.5962 56.64 58.3695 57.6267 57.9162 58.48C57.4762 59.3333 56.8562 59.9933 56.0562 60.46C55.2695 60.9267 54.3828 61.16 53.3962 61.16C52.3562 61.16 51.4562 60.9267 50.6962 60.46C49.9495 59.98 49.4028 59.36 49.0562 58.6V61H47.6762V46.2H49.0562V52.5ZM57.1762 55.52C57.1762 54.6133 56.9962 53.8333 56.6362 53.18C56.2895 52.5133 55.8095 52.0067 55.1962 51.66C54.5828 51.3133 53.8895 51.14 53.1162 51.14C52.3695 51.14 51.6828 51.32 51.0562 51.68C50.4428 52.04 49.9562 52.5533 49.5962 53.22C49.2362 53.8867 49.0562 54.66 49.0562 55.54C49.0562 56.42 49.2362 57.1933 49.5962 57.86C49.9562 58.5267 50.4428 59.04 51.0562 59.4C51.6828 59.76 52.3695 59.94 53.1162 59.94C53.8895 59.94 54.5828 59.7667 55.1962 59.42C55.8095 59.06 56.2895 58.5467 56.6362 57.88C56.9962 57.2 57.1762 56.4133 57.1762 55.52ZM71.9923 51.26V58.04C71.9923 58.7067 72.1189 59.1667 72.3723 59.42C72.6256 59.6733 73.0723 59.8 73.7123 59.8H74.9923V61H73.4923C72.5056 61 71.7723 60.7733 71.2923 60.32C70.8123 59.8533 70.5723 59.0933 70.5723 58.04V51.26H69.0523V50.08H70.5723V47.34H71.9923V50.08H74.9923V51.26H71.9923ZM87.7012 50.08V61H86.3012V50.08H87.7012ZM88.8412 46.86L84.7412 49.24V48.16L88.8412 45.6V46.86ZM101.691 51.26V58.04C101.691 58.7067 101.818 59.1667 102.071 59.42C102.325 59.6733 102.771 59.8 103.411 59.8H104.691V61H103.191C102.205 61 101.471 60.7733 100.991 60.32C100.511 59.8533 100.271 59.0933 100.271 58.04V51.26H98.7515V50.08H100.271V47.34H101.691V50.08H104.691V51.26H101.691ZM125.46 50.08V61H124.06V59.08C123.74 59.76 123.247 60.28 122.58 60.64C121.914 61 121.167 61.18 120.34 61.18C119.034 61.18 117.967 60.78 117.14 59.98C116.314 59.1667 115.9 57.9933 115.9 56.46V50.08H117.28V56.3C117.28 57.4867 117.574 58.3933 118.16 59.02C118.76 59.6467 119.574 59.96 120.6 59.96C121.654 59.96 122.494 59.6267 123.12 58.96C123.747 58.2933 124.06 57.3133 124.06 56.02V50.08H125.46ZM139.057 46.2V61H137.657V46.2H139.057ZM156.007 61.16C154.98 61.16 154.054 60.9333 153.227 60.48C152.414 60.0133 151.767 59.36 151.287 58.52C150.82 57.6667 150.587 56.6733 150.587 55.54C150.587 54.4067 150.827 53.42 151.307 52.58C151.787 51.7267 152.44 51.0733 153.267 50.62C154.094 50.1533 155.02 49.92 156.047 49.92C157.074 49.92 158 50.1533 158.827 50.62C159.667 51.0733 160.32 51.7267 160.787 52.58C161.267 53.42 161.507 54.4067 161.507 55.54C161.507 56.66 161.267 57.6467 160.787 58.5C160.307 59.3533 159.647 60.0133 158.807 60.48C157.967 60.9333 157.034 61.16 156.007 61.16ZM156.007 59.94C156.727 59.94 157.394 59.78 158.007 59.46C158.62 59.1267 159.114 58.6333 159.487 57.98C159.874 57.3133 160.067 56.5 160.067 55.54C160.067 54.58 159.88 53.7733 159.507 53.12C159.134 52.4533 158.64 51.96 158.027 51.64C157.414 51.3067 156.747 51.14 156.027 51.14C155.307 51.14 154.64 51.3067 154.027 51.64C153.414 51.96 152.92 52.4533 152.547 53.12C152.187 53.7733 152.007 54.58 152.007 55.54C152.007 56.5 152.187 57.3133 152.547 57.98C152.92 58.6333 153.407 59.1267 154.007 59.46C154.62 59.78 155.287 59.94 156.007 59.94ZM201.207 47.2V61H199.807V49.98L194.887 61H193.867L188.947 50.02V61H187.547V47.2H189.027L194.367 59.16L199.707 47.2H201.207ZM212.743 55.52C212.743 54.4 212.963 53.42 213.403 52.58C213.857 51.7267 214.477 51.0733 215.263 50.62C216.063 50.1533 216.963 49.92 217.963 49.92C219.003 49.92 219.897 50.16 220.643 50.64C221.403 51.12 221.95 51.7333 222.283 52.48V50.08H223.683V61H222.283V58.58C221.937 59.3267 221.383 59.9467 220.623 60.44C219.877 60.92 218.983 61.16 217.943 61.16C216.957 61.16 216.063 60.9267 215.263 60.46C214.477 59.9933 213.857 59.3333 213.403 58.48C212.963 57.6267 212.743 56.64 212.743 55.52ZM222.283 55.54C222.283 54.66 222.103 53.8867 221.743 53.22C221.383 52.5533 220.89 52.04 220.263 51.68C219.65 51.32 218.97 51.14 218.223 51.14C217.45 51.14 216.757 51.3133 216.143 51.66C215.53 52.0067 215.043 52.5133 214.683 53.18C214.337 53.8333 214.163 54.6133 214.163 55.52C214.163 56.4133 214.337 57.2 214.683 57.88C215.043 58.5467 215.53 59.06 216.143 59.42C216.757 59.7667 217.45 59.94 218.223 59.94C218.97 59.94 219.65 59.76 220.263 59.4C220.89 59.04 221.383 58.5267 221.743 57.86C222.103 57.1933 222.283 56.42 222.283 55.54ZM240.999 49.88C242.306 49.88 243.373 50.2867 244.199 51.1C245.026 51.9 245.439 53.0667 245.439 54.6V61H244.059V54.76C244.059 53.5733 243.759 52.6667 243.159 52.04C242.573 51.4133 241.766 51.1 240.739 51.1C239.686 51.1 238.846 51.4333 238.219 52.1C237.593 52.7667 237.279 53.7467 237.279 55.04V61H235.879V50.08H237.279V51.94C237.626 51.2733 238.126 50.7667 238.779 50.42C239.433 50.06 240.173 49.88 240.999 49.88ZM267.416 54.98C267.416 55.46 267.402 55.8267 267.376 56.08H258.316C258.356 56.9067 258.556 57.6133 258.916 58.2C259.276 58.7867 259.749 59.2333 260.336 59.54C260.922 59.8333 261.562 59.98 262.256 59.98C263.162 59.98 263.922 59.76 264.536 59.32C265.162 58.88 265.576 58.2867 265.776 57.54H267.256C266.989 58.6067 266.416 59.48 265.536 60.16C264.669 60.8267 263.576 61.16 262.256 61.16C261.229 61.16 260.309 60.9333 259.496 60.48C258.682 60.0133 258.042 59.36 257.576 58.52C257.122 57.6667 256.896 56.6733 256.896 55.54C256.896 54.4067 257.122 53.4133 257.576 52.56C258.029 51.7067 258.662 51.0533 259.476 50.6C260.289 50.1467 261.216 49.92 262.256 49.92C263.296 49.92 264.202 50.1467 264.976 50.6C265.762 51.0533 266.362 51.6667 266.776 52.44C267.202 53.2 267.416 54.0467 267.416 54.98ZM265.996 54.94C266.009 54.1267 265.842 53.4333 265.496 52.86C265.162 52.2867 264.702 51.8533 264.116 51.56C263.529 51.2667 262.889 51.12 262.196 51.12C261.156 51.12 260.269 51.4533 259.536 52.12C258.802 52.7867 258.396 53.7267 258.316 54.94H265.996ZM279.677 48.02C279.397 48.02 279.157 47.92 278.957 47.72C278.757 47.52 278.657 47.2733 278.657 46.98C278.657 46.6867 278.757 46.4467 278.957 46.26C279.157 46.06 279.397 45.96 279.677 45.96C279.957 45.96 280.197 46.06 280.397 46.26C280.597 46.4467 280.697 46.6867 280.697 46.98C280.697 47.2733 280.597 47.52 280.397 47.72C280.197 47.92 279.957 48.02 279.677 48.02ZM280.377 50.08V61H278.977V50.08H280.377ZM293.947 52.02C294.254 51.34 294.721 50.8133 295.347 50.44C295.987 50.0667 296.767 49.88 297.687 49.88V51.34H297.307C296.294 51.34 295.481 51.6133 294.867 52.16C294.254 52.7067 293.947 53.62 293.947 54.9V61H292.547V50.08H293.947V52.02ZM313.573 61.16C312.547 61.16 311.62 60.9333 310.793 60.48C309.98 60.0133 309.333 59.36 308.853 58.52C308.387 57.6667 308.153 56.6733 308.153 55.54C308.153 54.4067 308.393 53.42 308.873 52.58C309.353 51.7267 310.007 51.0733 310.833 50.62C311.66 50.1533 312.587 49.92 313.613 49.92C314.64 49.92 315.567 50.1533 316.393 50.62C317.233 51.0733 317.887 51.7267 318.353 52.58C318.833 53.42 319.073 54.4067 319.073 55.54C319.073 56.66 318.833 57.6467 318.353 58.5C317.873 59.3533 317.213 60.0133 316.373 60.48C315.533 60.9333 314.6 61.16 313.573 61.16ZM313.573 59.94C314.293 59.94 314.96 59.78 315.573 59.46C316.187 59.1267 316.68 58.6333 317.053 57.98C317.44 57.3133 317.633 56.5 317.633 55.54C317.633 54.58 317.447 53.7733 317.073 53.12C316.7 52.4533 316.207 51.96 315.593 51.64C314.98 51.3067 314.313 51.14 313.593 51.14C312.873 51.14 312.207 51.3067 311.593 51.64C310.98 51.96 310.487 52.4533 310.113 53.12C309.753 53.7733 309.573 54.58 309.573 55.54C309.573 56.5 309.753 57.3133 310.113 57.98C310.487 58.6333 310.973 59.1267 311.573 59.46C312.187 59.78 312.853 59.94 313.573 59.94Z" fill="white"/>
</svg>
