<svg width="312" height="62" viewBox="0 0 312 62" fill="none" xmlns="http://www.w3.org/2000/svg">
<rect width="312" height="62" rx="15" fill="#001552"/>
<path d="M30.5556 26.5L35 30.6538L30.5556 35.5M19.4444 26.5L15 30.6538L19.4444 35.5M22.7778 22L27.2222 40" stroke="white" stroke-width="3" stroke-linecap="round" stroke-linejoin="round"/>
<circle cx="18" cy="18" r="17" transform="matrix(-1 0 0 1 43 13)" stroke="white" stroke-width="2"/>
<path d="M50.7542 20.804H53.8092V22H49.2722V12.965H50.7542V20.804ZM57.7656 22.117C57.0896 22.117 56.4786 21.9653 55.9326 21.662C55.3866 21.35 54.9576 20.9167 54.6456 20.362C54.3336 19.7987 54.1776 19.1487 54.1776 18.412C54.1776 17.684 54.3379 17.0383 54.6586 16.475C54.9793 15.9117 55.4169 15.4783 55.9716 15.175C56.5263 14.8717 57.1459 14.72 57.8306 14.72C58.5153 14.72 59.1349 14.8717 59.6896 15.175C60.2443 15.4783 60.6819 15.9117 61.0026 16.475C61.3233 17.0383 61.4836 17.684 61.4836 18.412C61.4836 19.14 61.3189 19.7857 60.9896 20.349C60.6603 20.9123 60.2096 21.35 59.6376 21.662C59.0743 21.9653 58.4503 22.117 57.7656 22.117ZM57.7656 20.83C58.1469 20.83 58.5023 20.739 58.8316 20.557C59.1696 20.375 59.4426 20.102 59.6506 19.738C59.8586 19.374 59.9626 18.932 59.9626 18.412C59.9626 17.892 59.8629 17.4543 59.6636 17.099C59.4643 16.735 59.1999 16.462 58.8706 16.28C58.5413 16.098 58.1859 16.007 57.8046 16.007C57.4233 16.007 57.0679 16.098 56.7386 16.28C56.4179 16.462 56.1623 16.735 55.9716 17.099C55.7809 17.4543 55.6856 17.892 55.6856 18.412C55.6856 19.1833 55.8806 19.7813 56.2706 20.206C56.6693 20.622 57.1676 20.83 57.7656 20.83ZM64.0406 15.877C64.2573 15.513 64.5433 15.2313 64.8986 15.032C65.2626 14.824 65.6916 14.72 66.1856 14.72V16.254H65.8086C65.228 16.254 64.786 16.4013 64.4826 16.696C64.188 16.9907 64.0406 17.502 64.0406 18.23V22H62.5586V14.837H64.0406V15.877ZM73.7229 18.243C73.7229 18.5117 73.7056 18.7543 73.6709 18.971H68.1979C68.2412 19.543 68.4536 20.0023 68.8349 20.349C69.2162 20.6957 69.6842 20.869 70.2389 20.869C71.0362 20.869 71.5996 20.5353 71.9289 19.868H73.5279C73.3112 20.5267 72.9169 21.0683 72.3449 21.493C71.7816 21.909 71.0796 22.117 70.2389 22.117C69.5542 22.117 68.9389 21.9653 68.3929 21.662C67.8556 21.35 67.4309 20.9167 67.1189 20.362C66.8156 19.7987 66.6639 19.1487 66.6639 18.412C66.6639 17.6753 66.8112 17.0297 67.1059 16.475C67.4092 15.9117 67.8296 15.4783 68.3669 15.175C68.9129 14.8717 69.5369 14.72 70.2389 14.72C70.9149 14.72 71.5172 14.8673 72.0459 15.162C72.5746 15.4567 72.9862 15.8727 73.2809 16.41C73.5756 16.9387 73.7229 17.5497 73.7229 18.243ZM72.1759 17.775C72.1672 17.229 71.9722 16.7913 71.5909 16.462C71.2096 16.1327 70.7372 15.968 70.1739 15.968C69.6626 15.968 69.2249 16.1327 68.8609 16.462C68.4969 16.7827 68.2802 17.2203 68.2109 17.775H72.1759ZM83.4623 14.72C84.0257 14.72 84.5283 14.837 84.9703 15.071C85.421 15.305 85.772 15.6517 86.0233 16.111C86.2833 16.5703 86.4133 17.125 86.4133 17.775V22H84.9443V17.996C84.9443 17.3547 84.784 16.865 84.4633 16.527C84.1427 16.1803 83.705 16.007 83.1503 16.007C82.5957 16.007 82.1537 16.1803 81.8243 16.527C81.5037 16.865 81.3433 17.3547 81.3433 17.996V22H79.8743V17.996C79.8743 17.3547 79.714 16.865 79.3933 16.527C79.0727 16.1803 78.635 16.007 78.0803 16.007C77.5257 16.007 77.0837 16.1803 76.7543 16.527C76.4337 16.865 76.2733 17.3547 76.2733 17.996V22H74.7913V14.837H76.2733V15.656C76.516 15.3613 76.8237 15.1317 77.1963 14.967C77.569 14.8023 77.9677 14.72 78.3923 14.72C78.9643 14.72 79.4757 14.8413 79.9263 15.084C80.377 15.3267 80.7237 15.6777 80.9663 16.137C81.183 15.7037 81.521 15.3613 81.9803 15.11C82.4397 14.85 82.9337 14.72 83.4623 14.72ZM91.6501 13.888C91.3814 13.888 91.1561 13.797 90.9741 13.615C90.7921 13.433 90.7011 13.2077 90.7011 12.939C90.7011 12.6703 90.7921 12.445 90.9741 12.263C91.1561 12.081 91.3814 11.99 91.6501 11.99C91.9101 11.99 92.1311 12.081 92.3131 12.263C92.4951 12.445 92.5861 12.6703 92.5861 12.939C92.5861 13.2077 92.4951 13.433 92.3131 13.615C92.1311 13.797 91.9101 13.888 91.6501 13.888ZM92.3781 14.837V22H90.8961V14.837H92.3781ZM95.4158 15.89C95.6672 15.5607 96.0095 15.2833 96.4428 15.058C96.8762 14.8327 97.3658 14.72 97.9118 14.72C98.5358 14.72 99.1035 14.876 99.6148 15.188C100.135 15.4913 100.542 15.9203 100.837 16.475C101.131 17.0297 101.279 17.6667 101.279 18.386C101.279 19.1053 101.131 19.751 100.837 20.323C100.542 20.8863 100.135 21.3283 99.6148 21.649C99.1035 21.961 98.5358 22.117 97.9118 22.117C97.3658 22.117 96.8805 22.0087 96.4558 21.792C96.0312 21.5667 95.6845 21.2893 95.4158 20.96V25.406H93.9338V14.837H95.4158V15.89ZM99.7708 18.386C99.7708 17.892 99.6668 17.4673 99.4588 17.112C99.2595 16.748 98.9908 16.475 98.6528 16.293C98.3235 16.1023 97.9682 16.007 97.5868 16.007C97.2142 16.007 96.8588 16.1023 96.5208 16.293C96.1915 16.4837 95.9228 16.761 95.7148 17.125C95.5155 17.489 95.4158 17.918 95.4158 18.412C95.4158 18.906 95.5155 19.3393 95.7148 19.712C95.9228 20.076 96.1915 20.3533 96.5208 20.544C96.8588 20.7347 97.2142 20.83 97.5868 20.83C97.9682 20.83 98.3235 20.7347 98.6528 20.544C98.9908 20.3447 99.2595 20.0587 99.4588 19.686C99.6668 19.3133 99.7708 18.88 99.7708 18.386ZM104.954 22.117C104.391 22.117 103.884 22.0173 103.433 21.818C102.991 21.61 102.64 21.3327 102.38 20.986C102.12 20.6307 101.982 20.2363 101.964 19.803H103.498C103.524 20.1063 103.667 20.362 103.927 20.57C104.196 20.7693 104.53 20.869 104.928 20.869C105.344 20.869 105.665 20.791 105.89 20.635C106.124 20.4703 106.241 20.2623 106.241 20.011C106.241 19.7423 106.111 19.543 105.851 19.413C105.6 19.283 105.197 19.14 104.642 18.984C104.105 18.8367 103.667 18.6937 103.329 18.555C102.991 18.4163 102.697 18.204 102.445 17.918C102.203 17.632 102.081 17.255 102.081 16.787C102.081 16.4057 102.194 16.059 102.419 15.747C102.645 15.4263 102.965 15.175 103.381 14.993C103.806 14.811 104.291 14.72 104.837 14.72C105.652 14.72 106.306 14.928 106.8 15.344C107.303 15.7513 107.572 16.3103 107.606 17.021H106.124C106.098 16.7003 105.968 16.4447 105.734 16.254C105.5 16.0633 105.184 15.968 104.785 15.968C104.395 15.968 104.096 16.0417 103.888 16.189C103.68 16.3363 103.576 16.5313 103.576 16.774C103.576 16.9647 103.646 17.125 103.784 17.255C103.923 17.385 104.092 17.489 104.291 17.567C104.491 17.6363 104.785 17.7273 105.175 17.84C105.695 17.9787 106.12 18.1217 106.449 18.269C106.787 18.4077 107.078 18.6157 107.32 18.893C107.563 19.1703 107.689 19.5387 107.697 19.998C107.697 20.4053 107.585 20.7693 107.359 21.09C107.134 21.4107 106.813 21.662 106.397 21.844C105.99 22.026 105.509 22.117 104.954 22.117ZM115.396 14.837V22H113.914V21.155C113.68 21.4497 113.372 21.6837 112.991 21.857C112.618 22.0217 112.219 22.104 111.795 22.104C111.231 22.104 110.724 21.987 110.274 21.753C109.832 21.519 109.481 21.1723 109.221 20.713C108.969 20.2537 108.844 19.699 108.844 19.049V14.837H110.313V18.828C110.313 19.4693 110.473 19.9633 110.794 20.31C111.114 20.648 111.552 20.817 112.107 20.817C112.661 20.817 113.099 20.648 113.42 20.31C113.749 19.9633 113.914 19.4693 113.914 18.828V14.837H115.396ZM125.632 14.72C126.195 14.72 126.698 14.837 127.14 15.071C127.591 15.305 127.942 15.6517 128.193 16.111C128.453 16.5703 128.583 17.125 128.583 17.775V22H127.114V17.996C127.114 17.3547 126.954 16.865 126.633 16.527C126.312 16.1803 125.875 16.007 125.32 16.007C124.765 16.007 124.323 16.1803 123.994 16.527C123.673 16.865 123.513 17.3547 123.513 17.996V22H122.044V17.996C122.044 17.3547 121.884 16.865 121.563 16.527C121.242 16.1803 120.805 16.007 120.25 16.007C119.695 16.007 119.253 16.1803 118.924 16.527C118.603 16.865 118.443 17.3547 118.443 17.996V22H116.961V14.837H118.443V15.656C118.686 15.3613 118.993 15.1317 119.366 14.967C119.739 14.8023 120.137 14.72 120.562 14.72C121.134 14.72 121.645 14.8413 122.096 15.084C122.547 15.3267 122.893 15.6777 123.136 16.137C123.353 15.7037 123.691 15.3613 124.15 15.11C124.609 14.85 125.103 14.72 125.632 14.72ZM132.572 18.386C132.572 17.6667 132.719 17.0297 133.014 16.475C133.317 15.9203 133.725 15.4913 134.236 15.188C134.756 14.876 135.332 14.72 135.965 14.72C136.433 14.72 136.892 14.824 137.343 15.032C137.802 15.2313 138.166 15.5 138.435 15.838V12.38H139.93V22H138.435V20.921C138.192 21.2677 137.854 21.5537 137.421 21.779C136.996 22.0043 136.507 22.117 135.952 22.117C135.328 22.117 134.756 21.961 134.236 21.649C133.725 21.3283 133.317 20.8863 133.014 20.323C132.719 19.751 132.572 19.1053 132.572 18.386ZM138.435 18.412C138.435 17.918 138.331 17.489 138.123 17.125C137.924 16.761 137.659 16.4837 137.33 16.293C137.001 16.1023 136.645 16.007 136.264 16.007C135.883 16.007 135.527 16.1023 135.198 16.293C134.869 16.475 134.6 16.748 134.392 17.112C134.193 17.4673 134.093 17.892 134.093 18.386C134.093 18.88 134.193 19.3133 134.392 19.686C134.6 20.0587 134.869 20.3447 135.198 20.544C135.536 20.7347 135.891 20.83 136.264 20.83C136.645 20.83 137.001 20.7347 137.33 20.544C137.659 20.3533 137.924 20.076 138.123 19.712C138.331 19.3393 138.435 18.906 138.435 18.412ZM144.593 22.117C143.917 22.117 143.306 21.9653 142.76 21.662C142.214 21.35 141.785 20.9167 141.473 20.362C141.161 19.7987 141.005 19.1487 141.005 18.412C141.005 17.684 141.166 17.0383 141.486 16.475C141.807 15.9117 142.245 15.4783 142.799 15.175C143.354 14.8717 143.974 14.72 144.658 14.72C145.343 14.72 145.963 14.8717 146.517 15.175C147.072 15.4783 147.51 15.9117 147.83 16.475C148.151 17.0383 148.311 17.684 148.311 18.412C148.311 19.14 148.147 19.7857 147.817 20.349C147.488 20.9123 147.037 21.35 146.465 21.662C145.902 21.9653 145.278 22.117 144.593 22.117ZM144.593 20.83C144.975 20.83 145.33 20.739 145.659 20.557C145.997 20.375 146.27 20.102 146.478 19.738C146.686 19.374 146.79 18.932 146.79 18.412C146.79 17.892 146.691 17.4543 146.491 17.099C146.292 16.735 146.028 16.462 145.698 16.28C145.369 16.098 145.014 16.007 144.632 16.007C144.251 16.007 143.896 16.098 143.566 16.28C143.246 16.462 142.99 16.735 142.799 17.099C142.609 17.4543 142.513 17.892 142.513 18.412C142.513 19.1833 142.708 19.7813 143.098 20.206C143.497 20.622 143.995 20.83 144.593 20.83ZM150.868 12.38V22H149.386V12.38H150.868ZM155.531 22.117C154.855 22.117 154.244 21.9653 153.698 21.662C153.152 21.35 152.723 20.9167 152.411 20.362C152.099 19.7987 151.943 19.1487 151.943 18.412C151.943 17.684 152.104 17.0383 152.424 16.475C152.745 15.9117 153.183 15.4783 153.737 15.175C154.292 14.8717 154.912 14.72 155.596 14.72C156.281 14.72 156.901 14.8717 157.455 15.175C158.01 15.4783 158.448 15.9117 158.768 16.475C159.089 17.0383 159.249 17.684 159.249 18.412C159.249 19.14 159.085 19.7857 158.755 20.349C158.426 20.9123 157.975 21.35 157.403 21.662C156.84 21.9653 156.216 22.117 155.531 22.117ZM155.531 20.83C155.913 20.83 156.268 20.739 156.597 20.557C156.935 20.375 157.208 20.102 157.416 19.738C157.624 19.374 157.728 18.932 157.728 18.412C157.728 17.892 157.629 17.4543 157.429 17.099C157.23 16.735 156.966 16.462 156.636 16.28C156.307 16.098 155.952 16.007 155.57 16.007C155.189 16.007 154.834 16.098 154.504 16.28C154.184 16.462 153.928 16.735 153.737 17.099C153.547 17.4543 153.451 17.892 153.451 18.412C153.451 19.1833 153.646 19.7813 154.036 20.206C154.435 20.622 154.933 20.83 155.531 20.83ZM161.806 15.877C162.023 15.513 162.309 15.2313 162.664 15.032C163.028 14.824 163.457 14.72 163.951 14.72V16.254H163.574C162.994 16.254 162.552 16.4013 162.248 16.696C161.954 16.9907 161.806 17.502 161.806 18.23V22H160.324V14.837H161.806V15.877ZM170.51 22.117C169.947 22.117 169.44 22.0173 168.989 21.818C168.547 21.61 168.196 21.3327 167.936 20.986C167.676 20.6307 167.538 20.2363 167.52 19.803H169.054C169.08 20.1063 169.223 20.362 169.483 20.57C169.752 20.7693 170.086 20.869 170.484 20.869C170.9 20.869 171.221 20.791 171.446 20.635C171.68 20.4703 171.797 20.2623 171.797 20.011C171.797 19.7423 171.667 19.543 171.407 19.413C171.156 19.283 170.753 19.14 170.198 18.984C169.661 18.8367 169.223 18.6937 168.885 18.555C168.547 18.4163 168.253 18.204 168.001 17.918C167.759 17.632 167.637 17.255 167.637 16.787C167.637 16.4057 167.75 16.059 167.975 15.747C168.201 15.4263 168.521 15.175 168.937 14.993C169.362 14.811 169.847 14.72 170.393 14.72C171.208 14.72 171.862 14.928 172.356 15.344C172.859 15.7513 173.128 16.3103 173.162 17.021H171.68C171.654 16.7003 171.524 16.4447 171.29 16.254C171.056 16.0633 170.74 15.968 170.341 15.968C169.951 15.968 169.652 16.0417 169.444 16.189C169.236 16.3363 169.132 16.5313 169.132 16.774C169.132 16.9647 169.202 17.125 169.34 17.255C169.479 17.385 169.648 17.489 169.847 17.567C170.047 17.6363 170.341 17.7273 170.731 17.84C171.251 17.9787 171.676 18.1217 172.005 18.269C172.343 18.4077 172.634 18.6157 172.876 18.893C173.119 19.1703 173.245 19.5387 173.253 19.998C173.253 20.4053 173.141 20.7693 172.915 21.09C172.69 21.4107 172.369 21.662 171.953 21.844C171.546 22.026 171.065 22.117 170.51 22.117ZM175.219 13.888C174.95 13.888 174.725 13.797 174.543 13.615C174.361 13.433 174.27 13.2077 174.27 12.939C174.27 12.6703 174.361 12.445 174.543 12.263C174.725 12.081 174.95 11.99 175.219 11.99C175.479 11.99 175.7 12.081 175.882 12.263C176.064 12.445 176.155 12.6703 176.155 12.939C176.155 13.2077 176.064 13.433 175.882 13.615C175.7 13.797 175.479 13.888 175.219 13.888ZM175.947 14.837V22H174.465V14.837H175.947ZM179.231 16.046V20.011C179.231 20.2797 179.292 20.4747 179.413 20.596C179.543 20.7087 179.76 20.765 180.063 20.765H180.973V22H179.803C179.136 22 178.625 21.844 178.269 21.532C177.914 21.22 177.736 20.713 177.736 20.011V16.046H176.891V14.837H177.736V13.056H179.231V14.837H180.973V16.046H179.231ZM184.442 18.386C184.442 17.6667 184.59 17.0297 184.884 16.475C185.188 15.9203 185.595 15.4913 186.106 15.188C186.626 14.876 187.198 14.72 187.822 14.72C188.386 14.72 188.875 14.8327 189.291 15.058C189.716 15.2747 190.054 15.5477 190.305 15.877V14.837H191.8V22H190.305V20.934C190.054 21.272 189.712 21.5537 189.278 21.779C188.845 22.0043 188.351 22.117 187.796 22.117C187.181 22.117 186.618 21.961 186.106 21.649C185.595 21.3283 185.188 20.8863 184.884 20.323C184.59 19.751 184.442 19.1053 184.442 18.386ZM190.305 18.412C190.305 17.918 190.201 17.489 189.993 17.125C189.794 16.761 189.53 16.4837 189.2 16.293C188.871 16.1023 188.516 16.007 188.134 16.007C187.753 16.007 187.398 16.1023 187.068 16.293C186.739 16.475 186.47 16.748 186.262 17.112C186.063 17.4673 185.963 17.892 185.963 18.386C185.963 18.88 186.063 19.3133 186.262 19.686C186.47 20.0587 186.739 20.3447 187.068 20.544C187.406 20.7347 187.762 20.83 188.134 20.83C188.516 20.83 188.871 20.7347 189.2 20.544C189.53 20.3533 189.794 20.076 189.993 19.712C190.201 19.3393 190.305 18.906 190.305 18.412ZM202.028 14.72C202.591 14.72 203.094 14.837 203.536 15.071C203.987 15.305 204.338 15.6517 204.589 16.111C204.849 16.5703 204.979 17.125 204.979 17.775V22H203.51V17.996C203.51 17.3547 203.35 16.865 203.029 16.527C202.708 16.1803 202.271 16.007 201.716 16.007C201.161 16.007 200.719 16.1803 200.39 16.527C200.069 16.865 199.909 17.3547 199.909 17.996V22H198.44V17.996C198.44 17.3547 198.28 16.865 197.959 16.527C197.638 16.1803 197.201 16.007 196.646 16.007C196.091 16.007 195.649 16.1803 195.32 16.527C194.999 16.865 194.839 17.3547 194.839 17.996V22H193.357V14.837H194.839V15.656C195.082 15.3613 195.389 15.1317 195.762 14.967C196.135 14.8023 196.533 14.72 196.958 14.72C197.53 14.72 198.041 14.8413 198.492 15.084C198.943 15.3267 199.289 15.6777 199.532 16.137C199.749 15.7037 200.087 15.3613 200.546 15.11C201.005 14.85 201.499 14.72 202.028 14.72ZM213.04 18.243C213.04 18.5117 213.022 18.7543 212.988 18.971H207.515C207.558 19.543 207.77 20.0023 208.152 20.349C208.533 20.6957 209.001 20.869 209.556 20.869C210.353 20.869 210.916 20.5353 211.246 19.868H212.845C212.628 20.5267 212.234 21.0683 211.662 21.493C211.098 21.909 210.396 22.117 209.556 22.117C208.871 22.117 208.256 21.9653 207.71 21.662C207.172 21.35 206.748 20.9167 206.436 20.362C206.132 19.7987 205.981 19.1487 205.981 18.412C205.981 17.6753 206.128 17.0297 206.423 16.475C206.726 15.9117 207.146 15.4783 207.684 15.175C208.23 14.8717 208.854 14.72 209.556 14.72C210.232 14.72 210.834 14.8673 211.363 15.162C211.891 15.4567 212.303 15.8727 212.598 16.41C212.892 16.9387 213.04 17.5497 213.04 18.243ZM211.493 17.775C211.484 17.229 211.289 16.7913 210.908 16.462C210.526 16.1327 210.054 15.968 209.491 15.968C208.979 15.968 208.542 16.1327 208.178 16.462C207.814 16.7827 207.597 17.2203 207.528 17.775H211.493ZM215.837 16.046V20.011C215.837 20.2797 215.898 20.4747 216.019 20.596C216.149 20.7087 216.366 20.765 216.669 20.765H217.579V22H216.409C215.742 22 215.23 21.844 214.875 21.532C214.52 21.22 214.342 20.713 214.342 20.011V16.046H213.497V14.837H214.342V13.056H215.837V14.837H217.579V16.046H215.837ZM219.153 22.091C218.884 22.091 218.659 22 218.477 21.818C218.295 21.636 218.204 21.4107 218.204 21.142C218.204 20.8733 218.295 20.648 218.477 20.466C218.659 20.284 218.884 20.193 219.153 20.193C219.413 20.193 219.634 20.284 219.816 20.466C219.998 20.648 220.089 20.8733 220.089 21.142C220.089 21.4107 219.998 21.636 219.816 21.818C219.634 22 219.413 22.091 219.153 22.091Z" fill="white"/>
<path d="M48.6117 40.024V38.906L52.9797 32.64H54.7737V38.737H55.9827V40.024H54.7737V42H53.3177V40.024H48.6117ZM53.3827 34.148L50.3147 38.737H53.3827V34.148ZM61.8257 29.728L58.2897 44.275H56.8337L60.3567 29.728H61.8257ZM62.9134 33.875V32.523H65.6174V42H64.1224V33.875H62.9134ZM68.0824 39.985C68.9144 39.2657 69.5687 38.6763 70.0454 38.217C70.5307 37.749 70.9337 37.2637 71.2544 36.761C71.575 36.2583 71.7354 35.7557 71.7354 35.253C71.7354 34.733 71.6097 34.3257 71.3584 34.031C71.1157 33.7363 70.73 33.589 70.2014 33.589C69.69 33.589 69.2914 33.7537 69.0054 34.083C68.728 34.4037 68.5807 34.837 68.5634 35.383H67.1334C67.1594 34.395 67.454 33.641 68.0174 33.121C68.5894 32.5923 69.313 32.328 70.1884 32.328C71.133 32.328 71.8697 32.588 72.3984 33.108C72.9357 33.628 73.2044 34.3213 73.2044 35.188C73.2044 35.812 73.044 36.4143 72.7234 36.995C72.4114 37.567 72.0344 38.0827 71.5924 38.542C71.159 38.9927 70.6044 39.517 69.9284 40.115L69.3434 40.635H73.4644V41.87H67.1464V40.791L68.0824 39.985Z" fill="white"/>
<path d="M254.339 40.8104C254.548 40.3484 254.653 40.1175 254.799 40.0463C254.926 39.9846 255.074 39.9846 255.201 40.0463C255.347 40.1175 255.452 40.3484 255.661 40.8104L257.329 44.4897C257.391 44.6263 257.422 44.6946 257.47 44.7468C257.513 44.7931 257.564 44.8301 257.622 44.8555C257.688 44.8841 257.763 44.8919 257.915 44.9076L261.99 45.3304C262.501 45.3835 262.757 45.4101 262.871 45.5244C262.97 45.6238 263.016 45.7629 262.995 45.9004C262.971 46.0587 262.78 46.228 262.398 46.5666L259.354 49.2634C259.241 49.3634 259.185 49.4135 259.149 49.4744C259.117 49.5284 259.097 49.5883 259.091 49.6502C259.083 49.7202 259.099 49.7933 259.131 49.9396L259.981 53.8802C260.088 54.375 260.141 54.6223 260.066 54.7641C260 54.8874 259.88 54.9733 259.74 54.9965C259.58 55.0232 259.357 54.8969 258.911 54.6442L255.362 52.6315C255.23 52.5568 255.164 52.5195 255.094 52.5049C255.032 52.492 254.968 52.492 254.906 52.5049C254.836 52.5195 254.77 52.5568 254.638 52.6315L251.089 54.6442C250.643 54.8969 250.42 55.0232 250.26 54.9965C250.12 54.9733 250 54.8874 249.934 54.7641C249.859 54.6223 249.912 54.375 250.019 53.8802L250.869 49.9396C250.901 49.7933 250.917 49.7202 250.909 49.6502C250.903 49.5883 250.883 49.5284 250.851 49.4744C250.815 49.4135 250.759 49.3634 250.646 49.2634L247.602 46.5666C247.22 46.228 247.029 46.0587 247.005 45.9004C246.984 45.7629 247.03 45.6238 247.129 45.5244C247.243 45.4101 247.499 45.3835 248.01 45.3304L252.086 44.9076C252.237 44.8919 252.312 44.8841 252.378 44.8555C252.436 44.8301 252.487 44.7931 252.53 44.7468C252.578 44.6946 252.609 44.6263 252.671 44.4897L254.339 40.8104Z" fill="#F2B61B" stroke="#F2B61B" stroke-linecap="round" stroke-linejoin="round"/>
<path d="M273.88 40.8104C274.077 40.3484 274.175 40.1175 274.312 40.0463C274.43 39.9846 274.57 39.9846 274.688 40.0463C274.825 40.1175 274.923 40.3484 275.12 40.8104L276.684 44.4897C276.742 44.6263 276.771 44.6946 276.816 44.7468C276.856 44.7931 276.904 44.8301 276.958 44.8555C277.02 44.8841 277.091 44.8919 277.232 44.9076L281.053 45.3304C281.532 45.3835 281.772 45.4101 281.879 45.5244C281.972 45.6238 282.015 45.7629 281.995 45.9004C281.973 46.0587 281.794 46.228 281.436 46.5666L278.582 49.2634C278.476 49.3634 278.423 49.4135 278.39 49.4744C278.36 49.5284 278.341 49.5883 278.335 49.6502C278.328 49.7202 278.343 49.7933 278.372 49.9396L279.17 53.8802C279.27 54.375 279.32 54.6223 279.249 54.7641C279.188 54.8874 279.075 54.9733 278.944 54.9965C278.794 55.0232 278.585 54.8969 278.167 54.6442L274.839 52.6315C274.716 52.5568 274.654 52.5195 274.588 52.5049C274.53 52.492 274.47 52.492 274.412 52.5049C274.346 52.5195 274.284 52.5568 274.161 52.6315L270.833 54.6442C270.415 54.8969 270.207 55.0232 270.056 54.9965C269.925 54.9733 269.813 54.8874 269.751 54.7641C269.68 54.6223 269.73 54.375 269.83 53.8802L270.628 49.9396C270.657 49.7933 270.672 49.7202 270.665 49.6502C270.659 49.5883 270.64 49.5284 270.61 49.4744C270.577 49.4135 270.524 49.3634 270.418 49.2634L267.564 46.5666C267.206 46.228 267.027 46.0587 267.005 45.9004C266.985 45.7629 267.028 45.6238 267.121 45.5244C267.228 45.4101 267.468 45.3835 267.947 45.3304L271.768 44.9076C271.909 44.8919 271.98 44.8841 272.042 44.8555C272.096 44.8301 272.144 44.7931 272.184 44.7468C272.229 44.6946 272.258 44.6263 272.316 44.4897L273.88 40.8104Z" stroke="#F2B61B" stroke-linecap="round" stroke-linejoin="round"/>
<path d="M293.339 40.8104C293.548 40.3484 293.653 40.1175 293.799 40.0463C293.926 39.9846 294.074 39.9846 294.201 40.0463C294.347 40.1175 294.452 40.3484 294.661 40.8104L296.329 44.4897C296.391 44.6263 296.422 44.6946 296.47 44.7468C296.513 44.7931 296.564 44.8301 296.622 44.8555C296.688 44.8841 296.763 44.8919 296.915 44.9076L300.99 45.3304C301.501 45.3835 301.757 45.4101 301.871 45.5244C301.97 45.6238 302.016 45.7629 301.995 45.9004C301.971 46.0587 301.78 46.228 301.398 46.5666L298.354 49.2634C298.241 49.3634 298.185 49.4135 298.149 49.4744C298.117 49.5284 298.097 49.5883 298.091 49.6502C298.083 49.7202 298.099 49.7933 298.131 49.9396L298.981 53.8802C299.088 54.375 299.141 54.6223 299.066 54.7641C299 54.8874 298.88 54.9733 298.74 54.9965C298.58 55.0232 298.357 54.8969 297.911 54.6442L294.362 52.6315C294.23 52.5568 294.164 52.5195 294.094 52.5049C294.032 52.492 293.968 52.492 293.906 52.5049C293.836 52.5195 293.77 52.5568 293.638 52.6315L290.089 54.6442C289.643 54.8969 289.42 55.0232 289.26 54.9965C289.12 54.9733 289 54.8874 288.934 54.7641C288.859 54.6223 288.912 54.375 289.019 53.8802L289.869 49.9396C289.901 49.7933 289.917 49.7202 289.909 49.6502C289.903 49.5883 289.883 49.5284 289.851 49.4744C289.815 49.4135 289.759 49.3634 289.646 49.2634L286.602 46.5666C286.22 46.228 286.029 46.0587 286.005 45.9004C285.984 45.7629 286.03 45.6238 286.129 45.5244C286.243 45.4101 286.499 45.3835 287.01 45.3304L291.086 44.9076C291.237 44.8919 291.312 44.8841 291.378 44.8555C291.436 44.8301 291.487 44.7931 291.53 44.7468C291.578 44.6946 291.609 44.6263 291.671 44.4897L293.339 40.8104Z" stroke="#F2B61B" stroke-linecap="round" stroke-linejoin="round"/>
</svg>
