<svg width="41" height="44" viewBox="0 0 41 44" fill="none" xmlns="http://www.w3.org/2000/svg">
<path fill-rule="evenodd" clip-rule="evenodd" d="M24.9384 1.17336L36.5616 7.79432C39.3081 9.3588 41 12.2501 41 15.379V28.621C41 31.7499 39.3081 34.6412 36.5616 36.2057L24.9384 42.8266C22.1919 44.3911 18.8081 44.3911 16.0616 42.8266L4.43838 36.2057C1.6919 34.6412 0 31.7499 0 28.621V15.379C0 12.2501 1.6919 9.3588 4.43838 7.79432L16.0616 1.17336C18.8081 -0.39112 22.1919 -0.39112 24.9384 1.17336ZM30.8863 15.5152C30.5027 14.8034 29.6069 14.5332 28.8854 14.9117L20.483 19.3181L12.0806 14.9117C11.3592 14.5332 10.4634 14.8034 10.0798 15.5152C9.69617 16.227 9.97005 17.1108 10.6915 17.4893L19.0035 21.8491L19.0036 31.7296C19.0036 32.5358 19.6659 33.1893 20.483 33.1893C21.3001 33.1893 21.9625 32.5358 21.9625 31.7296L21.9624 21.8491L30.2746 17.4893C30.996 17.1108 31.2699 16.227 30.8863 15.5152Z" fill="black"/>
</svg>
