<svg width="58" height="60" viewBox="0 0 58 60" fill="none" xmlns="http://www.w3.org/2000/svg">
<path d="M54.8867 31.1429C54.6046 30.4074 54.6046 29.5932 54.8867 28.8552L57.1681 22.8659C57.7072 21.4521 57.1871 19.8582 55.9224 19.0323L50.5556 15.5279C49.8953 15.0964 49.4167 14.4361 49.2114 13.6762L47.536 7.48884C47.1416 6.03067 45.7829 5.04372 44.2749 5.11884L37.8723 5.43899C37.0854 5.47696 36.3109 5.22642 35.6968 4.73165L30.7053 0.71165C29.5294 -0.237217 27.8505 -0.237217 26.6736 0.71165L21.6821 4.73165C21.068 5.22642 20.2937 5.47696 19.5057 5.43899L13.1039 5.11884C11.5959 5.04384 10.2373 6.03067 9.84292 7.48884L8.16854 13.6762C7.96229 14.4361 7.48381 15.0964 6.82346 15.5279L1.45651 19.0322C0.191939 19.8581 -0.327319 21.4537 0.210923 22.8658L2.49327 28.856C2.77463 29.5932 2.77463 30.4073 2.49327 31.1436L0.210923 37.1338C-0.327319 38.5449 0.191939 40.1415 1.45651 40.9674L6.82346 44.4727C7.48381 44.9024 7.96229 45.561 8.16854 46.3226L9.84292 52.5099C10.2374 53.969 11.596 54.9551 13.1039 54.8799L19.5057 54.5615C20.2937 54.5208 21.068 54.7732 21.6821 55.2671L26.6736 59.2889C27.8505 60.2369 29.5294 60.2369 30.7044 59.2889L35.6968 55.2671C36.3102 54.7733 37.0854 54.5209 37.8723 54.5615L44.2749 54.8799C45.7829 54.9551 47.1416 53.969 47.536 52.5099L49.2114 46.3226C49.4167 45.561 49.8953 44.9024 50.5556 44.4727L55.9224 40.9674C57.1871 40.1415 57.7072 38.5449 57.1672 37.1338L54.8867 31.1429ZM32.5309 43.257C32.5309 44.4818 31.5376 45.4769 30.3129 45.4769H27.0663C25.8415 45.4769 24.8474 44.4818 24.8474 43.257V39.8685C24.8474 38.6436 25.8415 37.6486 27.0663 37.6486H30.3129C31.5376 37.6486 32.5309 38.6436 32.5309 39.8685V43.257ZM32.5309 31.5173C32.5309 32.7422 31.5376 33.7354 30.3129 33.7354H27.0663C25.8415 33.7354 24.8474 32.7422 24.8474 31.5173V16.7436C24.8474 15.517 25.8415 14.5237 27.0663 14.5237H30.3129C31.5376 14.5237 32.5309 15.517 32.5309 16.7436V31.5173Z" fill="black"/>
</svg>
